HIERARCHY
ROOT Hips
{
	OFFSET 0.000000 0.000000 0.000000 
	CHANNELS 6 Xposition Yposition Zposition Zrotation Yrotation Xrotation
	JOINT LeftUpLeg
	{
		OFFSET 1.363060 -1.794630 0.839290 
		CHANNELS 3 Zrotation Yrotation Xrotation
		JOINT LeftLeg
		{
			OFFSET 2.448110 -6.726130 0.000000 
			CHANNELS 3 Zrotation Yrotation Xrotation
			JOINT LeftFoot
			{
				OFFSET 2.562200 -7.039590 0.000000 
				CHANNELS 3 Zrotation Yrotation Xrotation
				JOINT LeftToeBase
				{
					OFFSET 0.157640 -0.433110 2.322550 
					CHANNELS 3 Zrotation Yrotation Xrotation
					End Site
					{
						OFFSET 0.000000 0.000000 0.000000 
					}
				}
			}
		}
	}
	JOINT RightUpLeg
	{
		OFFSET -1.305520 -1.794630 0.839290 
		CHANNELS 3 Zrotation Yrotation Xrotation
		JOINT RightLeg
		{
			OFFSET -2.542530 -6.985550 0.000000 
			CHANNELS 3 Zrotation Yrotation Xrotation
			JOINT RightFoot
			{
				OFFSET -2.568260 -7.056230 0.000000 
				CHANNELS 3 Zrotation Yrotation Xrotation
				JOINT RightToeBase
				{
					OFFSET -0.164730 -0.452590 2.363150 
					CHANNELS 3 Zrotation Yrotation Xrotation
					End Site
					{
						OFFSET 0.000000 0.000000 0.000000 
					}
				}
			}
		}
	}
	JOINT Spine
	{
		OFFSET 0.028270 2.035590 -0.193380 
		CHANNELS 3 Zrotation Yrotation Xrotation
		JOINT Spine1
		{
			OFFSET 0.056720 2.048850 -0.042750 
			CHANNELS 3 Zrotation Yrotation Xrotation
			JOINT Neck1
			{
				OFFSET -0.054170 1.746240 0.172020 
				CHANNELS 3 Zrotation Yrotation Xrotation
				JOINT Head
				{
					OFFSET 0.104070 1.761360 -0.123970 
					CHANNELS 3 Zrotation Yrotation Xrotation
					End Site
					{
						OFFSET 0.000000 0.000000 0.000000 
					}
				}
			}
			JOINT LeftArm
			{
				OFFSET 3.362410 1.200890 -0.311210 
				CHANNELS 3 Zrotation Yrotation Xrotation
				JOINT LeftForeArm
				{
					OFFSET 4.983000 -0.000000 -0.000000 
					CHANNELS 3 Zrotation Yrotation Xrotation
					JOINT LeftHand
					{
						OFFSET 3.483560 -0.000000 -0.000000 
						CHANNELS 3 Zrotation Yrotation Xrotation
						JOINT LeftHandIndex1
						{
							OFFSET 0.715260 -0.000000 -0.000000 
							CHANNELS 3 Zrotation Yrotation Xrotation
							End Site
							{
								OFFSET 0.000000 0.000000 0.000000 
							}
						}
					}
				}
			}
			JOINT RightArm
			{
				OFFSET -3.136600 1.374050 -0.404650 
				CHANNELS 3 Zrotation Yrotation Xrotation
				JOINT RightForeArm
				{
					OFFSET -5.241900 -0.000000 -0.000000 
					CHANNELS 3 Zrotation Yrotation Xrotation
					JOINT RightHand
					{
						OFFSET -3.444170 -0.000000 -0.000000 
						CHANNELS 3 Zrotation Yrotation Xrotation
						JOINT RightHandIndex1
						{
							OFFSET -0.622530 -0.000000 -0.000000 
							CHANNELS 3 Zrotation Yrotation Xrotation
							End Site
							{
								OFFSET 0.000000 0.000000 0.000000 
							}
						}
					}
				}
			}
		}
	}
}
MOTION
Frames: 9
Frame Time: 0.041667
0.371039 17.698433 0.159089 0.766490 -5.485774 5.981994 -19.900971 -14.907528 -4.515343 -0.610631 3.925432 15.462909 -1.210140 7.555990 -7.870787 0.710400 -5.386700 -15.014700 19.421918 19.941326 -4.202670 -0.882099 -4.739828 17.947487 0.433367 -6.199834 -11.086380 -0.651700 5.163800 -14.376300 9.640503 -0.979703 -1.760633 -0.243601 -0.383819 -2.821157 3.728263 -9.370341 14.111542 3.498600 -5.377800 11.031100 -48.637263 -29.875300 30.833406 125.040239 -49.825922 -90.639243 0.600091 2.791231 -15.177640 -7.125000 0.000000 0.000000 82.362576 -4.834996 26.793200 -29.255735 29.481390 -4.609619 1.016080 1.078329 16.865923 7.125000 0.000000 0.000000 
0.378372 17.694767 0.158886 0.909232 -5.537557 5.924114 -20.084439 -14.824108 -4.435187 -0.615055 3.896252 15.398118 -1.205560 7.519634 -7.799298 0.669700 -5.233100 -14.574600 19.228523 19.852135 -4.366258 -0.918533 -4.834039 18.200092 0.394844 -5.989040 -11.184581 -0.647200 5.146300 -14.326400 9.561134 -1.044257 -1.813593 -0.256392 -0.421402 -2.848854 3.620513 -9.236378 14.182242 3.469800 -5.333000 11.018400 -48.209773 -30.563359 30.863022 124.220261 -50.041667 -89.970109 0.575838 2.770828 -15.137334 -7.125000 0.000000 0.000000 82.391927 -4.858189 26.580439 -29.376926 29.625134 -4.659237 1.007472 1.080289 16.835583 7.125000 0.000000 0.000000 
0.385807 17.691406 0.159904 1.033079 -5.623563 5.836307 -20.256078 -14.692283 -4.317899 -0.623669 3.853308 15.299857 -1.195729 7.459674 -7.746493 0.633900 -5.094100 -14.177000 19.068103 19.847932 -4.472630 -0.959057 -4.939572 18.491376 0.367488 -5.862958 -11.297495 -0.637700 5.109100 -14.220000 9.560507 -1.113585 -1.756973 -0.254852 -0.456277 -2.859090 3.565797 -9.116224 14.207168 3.466800 -5.291300 11.013300 -48.010704 -31.240225 30.911398 123.150835 -50.324434 -89.077343 0.565858 2.732959 -14.873912 -7.125000 0.000000 0.000000 82.305103 -4.707622 26.539055 -29.446003 29.712816 -4.688689 0.994200 1.089953 16.757347 7.125000 0.000000 0.000000 
0.394057 17.688350 0.159904 1.294572 -5.698566 5.751132 -20.588010 -14.588677 -4.224325 -0.624724 3.827877 15.259107 -1.205903 7.497639 -7.681258 0.668100 -5.227200 -14.557800 18.743440 19.867592 -4.598524 -0.997836 -5.047869 18.773347 0.342774 -5.759671 -11.416263 -0.635700 5.101200 -14.197500 9.563108 -1.204574 -1.746171 -0.166182 -0.499134 -2.870988 3.470022 -8.967795 14.297548 3.454300 -5.245300 11.038900 -47.867827 -31.850653 30.995300 122.251836 -50.549926 -88.316037 0.537252 2.722852 -14.688148 -7.125000 0.000000 0.000000 82.168244 -4.404084 26.579679 -29.389301 29.668220 -4.665679 0.999656 1.088751 16.647660 7.125000 0.000000 0.000000 
0.402408 17.685397 0.159700 1.527324 -5.800002 5.705094 -20.884013 -14.470102 -4.185143 -0.624332 3.809944 15.232926 -1.216003 7.536696 -7.616931 0.724600 -5.439200 -15.165700 18.437239 19.837921 -4.782290 -1.032360 -5.142207 19.012474 0.316504 -5.616396 -11.475965 -0.670000 5.234600 -14.578800 9.555380 -1.260094 -1.810165 -0.098197 -0.528139 -2.861315 3.352757 -8.804256 14.421340 3.432300 -5.195700 11.057900 -47.815534 -32.421479 31.227194 121.336500 -50.767985 -87.547333 0.513734 2.700421 -14.404564 -7.125000 0.000000 0.000000 82.122973 -4.334777 26.386765 -29.479612 29.780247 -4.702010 1.020326 1.089681 16.641516 7.125000 0.000000 0.000000 
0.407908 17.679591 0.160006 1.440021 -5.979656 5.664088 -20.826449 -14.258030 -4.195638 -0.625150 3.804962 15.218735 -1.218340 7.537101 -7.579127 0.751800 -5.538100 -15.450000 18.520483 19.996485 -4.836817 -1.064595 -5.216495 19.235362 0.300386 -5.537107 -11.532299 -0.671200 5.239000 -14.591500 9.677987 -1.272538 -1.800321 -0.162414 -0.541024 -2.865381 3.226426 -8.666784 14.526564 3.388500 -5.148100 11.077300 -47.766431 -32.978643 31.505978 120.384848 -50.979589 -86.747538 0.500380 2.668231 -14.127547 -7.125000 0.000000 0.000000 82.082483 -4.377766 26.283694 -29.719743 30.050020 -4.800475 1.036281 1.078981 16.443721 7.125000 0.000000 0.000000 
0.411371 17.677147 0.162247 1.422542 -6.130904 5.565674 -20.864682 -14.067305 -4.158479 -0.618425 3.811721 15.255923 -1.197478 7.451610 -7.648640 0.692700 -5.320500 -14.825000 18.527701 20.157211 -4.802445 -1.089853 -5.276832 19.414328 0.292922 -5.518354 -11.592440 -0.663000 5.207400 -14.501000 10.043933 -1.383004 -1.648412 -0.027518 -0.588282 -2.810418 2.971966 -8.465463 14.615791 3.300200 -5.082900 11.104200 -47.786763 -33.436962 31.655108 119.392703 -51.196520 -85.879915 0.501680 2.648347 -13.929409 -7.125000 0.000000 0.000000 81.908685 -4.284312 26.215923 -29.925196 30.285692 -4.883030 1.088984 1.062755 16.415672 7.125000 0.000000 0.000000 
0.414529 17.675313 0.166117 1.449128 -6.248259 5.489289 -20.960913 -13.923969 -4.145181 -0.599487 3.844781 15.373980 -1.146041 7.237849 -7.788426 0.597500 -4.948600 -13.762000 18.466671 20.216328 -4.758378 -1.102386 -5.309895 19.504036 0.282039 -5.479845 -11.661924 -0.662000 5.203900 -14.491000 10.584257 -1.533665 -1.563231 0.232175 -0.654831 -2.723838 2.698593 -8.170055 14.693342 3.231800 -4.988100 11.111900 -48.008819 -33.871918 31.851696 118.411936 -51.405378 -85.001917 0.522341 2.641704 -13.698049 -7.125000 0.000000 0.000000 81.595022 -4.279141 26.366705 -30.102170 30.462411 -4.948342 1.097633 1.048925 16.205439 7.125000 0.000000 0.000000 
0.419315 17.671138 0.169580 1.494001 -6.388406 5.391693 -21.095036 -13.748055 -4.107561 -0.581160 3.881195 15.497183 -1.141214 7.231055 -7.841632 0.667600 -5.225100 -14.551600 18.397223 20.235221 -4.677045 -1.107256 -5.320624 19.529317 0.276464 -5.434435 -11.648659 -0.687800 5.302100 -14.772200 10.916486 -1.615240 -1.588137 0.385269 -0.693473 -2.708713 2.448715 -7.924594 14.865361 3.158200 -4.913800 11.148300 -48.266562 -34.206511 32.249443 117.430818 -51.606186 -84.135232 0.542138 2.617443 -13.387727 -7.125000 0.000000 0.000000 81.411437 -4.361022 26.440851 -30.246493 30.602083 -5.001529 1.088762 1.034064 16.067642 7.125000 0.000000 0.000000 
